<svg height="574.03802" viewBox="0 0 795.39431 574.03802" width="795.39431" xmlns="http://www.w3.org/2000/svg" xmlns:xlink="http://www.w3.org/1999/xlink"><linearGradient id="a" gradientTransform="matrix(0 1 -1 0 3217.53309 1009.65784)" gradientUnits="userSpaceOnUse" x1="-450.78971" x2="-450.78971" y1="2803.04671" y2="2729.34772"><stop offset="0" stop-color="#808080" stop-opacity=".25"/><stop offset=".53514" stop-color="#808080" stop-opacity=".12"/><stop offset="1" stop-color="#808080" stop-opacity=".1"/></linearGradient><ellipse cx="232.05775" cy="450.06897" fill="#e0e0e0" rx="35.09476" ry="5.26421" transform="matrix(.44446649 -.89579548 .89579548 .44446649 -476.55674 294.92367)"/><ellipse cx="670.57742" cy="667.85592" fill="#e0e0e0" rx="35.09476" ry="3.57677" transform="matrix(.44446649 -.89579548 .89579548 .44446649 -428.03695 808.73554)"/><path d="m397.95325 566.93514h21.05685v70.18951h-21.05685z" fill="#f55f44" transform="matrix(.77109899 .63671528 -.63671528 .77109899 274.52069 -285.26226)"/><path d="m409.32507 573.56618h23.69234v70.18951h-23.69234z" opacity=".05" transform="matrix(-.97345481 -.22887929 .22887929 -.97345481 489.54965 1134.58125)"/><path d="m411.92558 573.86778h21.05685v70.18951h-21.05685z" fill="#f55f44" transform="matrix(-.97345481 -.22887929 .22887929 -.97345481 492.0121 1135.47005)"/><path d="m414.48638 314.08219h73.69899v489.57186h-73.69899z" fill="url(#a)" transform="matrix(.44446649 -.89579548 .89579548 .44446649 -452.20218 551.7936)"/><path d="m655.01556 699.105c-8.584-4.11751-444.8438-220.718-438.55625-217.5983 24.21371-36.95739 31.19689-62.87545 31.19689-62.87545l438.55625 217.5983s-15.40113 27.02902-31.19689 62.87545z" fill="#f5f5f5" transform="translate(-202.30284 -162.98099)"/><path d="m421.72508 519.09383h40.35897v70.18951h-40.35897z" opacity=".05" transform="matrix(.89579548 .44446649 -.44446649 .89579548 90.06389 -301.64381)"/><path d="m423.47981 519.09383h36.8495v70.18951h-36.8495z" fill="#f55f44" transform="matrix(.89579548 .44446649 -.44446649 .89579548 90.06389 -301.64381)"/><path d="m428.83545 518.70387h24.56633v70.18951h-24.56633z" opacity=".05" transform="matrix(.89579548 .44446649 -.44446649 .89579548 89.80867 -301.33512)"/><path d="m430.59019 518.70387h21.05685v70.18951h-21.05685z" fill="#f55f44" transform="matrix(.89579548 .44446649 -.44446649 .89579548 89.80867 -301.33512)"/><circle cx="261.30557" cy="563.92499" fill="#dbdbdb" r="2.92569"/><g fill="#47e6b1"><g opacity=".5"><path d="m29.39431 482h3v17h-3z"/><path d="m231.69716 644.98099h3v17h-3z" transform="matrix(0 1 -1 0 684.3753 257.30284)"/></g><g opacity=".5"><path d="m785.39431 270h3v17h-3z"/><path d="m987.69716 432.98099h3v17h-3z" transform="matrix(0 1 -1 0 1228.3753 -710.69716)"/></g><g opacity=".5"><path d="m47.39431 59h3v17h-3z"/><path d="m249.69716 221.98099h3v17h-3z" transform="matrix(0 1 -1 0 279.3753 -183.69716)"/></g><g opacity=".5"><path d="m695.39431 33h3v17h-3z"/><path d="m897.69716 195.98099h3v17h-3z" transform="matrix(0 1 -1 0 901.3753 -857.69716)"/></g></g><path d="m214.59252 416.4373a3.67458 3.67458 0 0 1 -2.04749-4.441 1.76592 1.76592 0 0 0 .0799-.40754 1.84257 1.84257 0 0 0 -3.31045-1.22119 1.76637 1.76637 0 0 0 -.2039.3618 3.67459 3.67459 0 0 1 -4.441 2.04749 1.766 1.766 0 0 0 -.40754-.07991 1.84258 1.84258 0 0 0 -1.22119 3.31045 1.76606 1.76606 0 0 0 .3618.20389 3.67462 3.67462 0 0 1 2.04749 4.441 1.76594 1.76594 0 0 0 -.07991.40754 1.84257 1.84257 0 0 0 3.31045 1.22119 1.7659 1.7659 0 0 0 .2039-.3618 3.67459 3.67459 0 0 1 4.441-2.04749 1.76665 1.76665 0 0 0 .40755.07991 1.84257 1.84257 0 0 0 1.22119-3.31045 1.76684 1.76684 0 0 0 -.3618-.20389z" fill="#4d8af0" opacity=".5" transform="translate(-202.30284 -162.98099)"/><path d="m386.59252 219.4373a3.67458 3.67458 0 0 1 -2.04749-4.441 1.76592 1.76592 0 0 0 .0799-.40754 1.84257 1.84257 0 0 0 -3.31045-1.22119 1.76637 1.76637 0 0 0 -.2039.3618 3.67459 3.67459 0 0 1 -4.441 2.04749 1.766 1.766 0 0 0 -.40754-.07991 1.84258 1.84258 0 0 0 -1.22119 3.31045 1.76606 1.76606 0 0 0 .3618.20389 3.67462 3.67462 0 0 1 2.04749 4.441 1.76594 1.76594 0 0 0 -.07991.40754 1.84257 1.84257 0 0 0 3.31045 1.22119 1.7659 1.7659 0 0 0 .2039-.3618 3.67459 3.67459 0 0 1 4.441-2.04749 1.76665 1.76665 0 0 0 .40755.07991 1.84257 1.84257 0 0 0 1.22119-3.31045 1.76684 1.76684 0 0 0 -.3618-.20389z" fill="#4d8af0" opacity=".5" transform="translate(-202.30284 -162.98099)"/><path d="m596.59252 730.4373a3.67458 3.67458 0 0 1 -2.04749-4.441 1.76592 1.76592 0 0 0 .0799-.40754 1.84257 1.84257 0 0 0 -3.31045-1.22119 1.76637 1.76637 0 0 0 -.2039.3618 3.67459 3.67459 0 0 1 -4.441 2.04749 1.766 1.766 0 0 0 -.40754-.07991 1.84258 1.84258 0 0 0 -1.22119 3.31045 1.76606 1.76606 0 0 0 .3618.20389 3.67462 3.67462 0 0 1 2.04749 4.441 1.76594 1.76594 0 0 0 -.07991.40754 1.84257 1.84257 0 0 0 3.31045 1.22119 1.7659 1.7659 0 0 0 .2039-.3618 3.67459 3.67459 0 0 1 4.441-2.04749 1.76665 1.76665 0 0 0 .40755.07991 1.84257 1.84257 0 0 0 1.22119-3.31045 1.76684 1.76684 0 0 0 -.3618-.20389z" fill="#4d8af0" opacity=".5" transform="translate(-202.30284 -162.98099)"/><circle cx="759.39431" cy="444" fill="#f55f44" opacity=".5" r="6"/><circle cx="627.39431" cy="482" fill="#4d8af0" opacity=".5" r="6"/><circle cx="103.39431" cy="541" fill="#47e6b1" opacity=".5" r="6"/><circle cx="411.39431" cy="6" fill="#f55f44" opacity=".5" r="6"/><path d="m407.19716 520.481-24 36s8 37 185 36 191-36 191-36l-33-48-101-69z" fill="#1877f2" transform="translate(-202.30284 -162.98099)"/><path d="m407.19716 520.481-24 36s8 37 185 36 191-36 191-36l-33-48-101-69z" opacity=".15" transform="translate(-202.30284 -162.98099)"/><path d="m715.394 224-315 139-384-139 352-160 172.79 79.67 6.19 2.86z" fill="#1877f2"/><path d="m715.394 224-315 139-384-139 352-160 172.79 79.67 6.19 2.86z" opacity=".15"/><path d="m553.894 257.32-6 .36-6.71-114.01 6.19 2.86z" fill="#f5f5f5"/><path d="m411.19716 386.481-28 170s201-65 376 0l-26-180s-235-29-322 10z" fill="#1877f2" transform="translate(-202.30284 -162.98099)"/><ellipse cx="553.39431" cy="272" fill="#f5f5f5" rx="29" ry="20"/></svg>